HIERARCHY
ROOT joint_Root
{
  OFFSET 0 0 0
  CHANNELS 6 Xposition Yposition Zposition Zrotation Xrotation Yrotation
  JOINT Hips
  {
    OFFSET 0.847027 93.984 -452.225
    CHANNELS 6 Xposition Yposition Zposition Zrotation Xrotation Yrotation
    JOINT Spine
    {
      OFFSET 15.7357 0 0
      CHANNELS 6 Xposition Yposition Zposition Zrotation Xrotation Yrotation
      JOINT Chest
      {
        OFFSET 8.98455 -0.406207 0
        CHANNELS 6 Xposition Yposition Zposition Zrotation Xrotation Yrotation
        JOINT Neck
        {
          OFFSET 16.3773 0 0
          CHANNELS 6 Xposition Yposition Zposition Zrotation Xrotation Yrotation
          JOINT Head
          {
            OFFSET 6.45672 0 0
            CHANNELS 6 Xposition Yposition Zposition Zrotation Xrotation Yrotation
            End Site
            {
              OFFSET 0 0 0
            }
          }
        }
        JOINT Shoulder_L
        {
          OFFSET 12.9942 -0.242716 4.98039
          CHANNELS 6 Xposition Yposition Zposition Zrotation Xrotation Yrotation
          JOINT UpperArm_L
          {
            OFFSET 5.34809 0 0
            CHANNELS 6 Xposition Yposition Zposition Zrotation Xrotation Yrotation
            JOINT LowerArm_L
            {
              OFFSET 24.3286 1.87007e-05 0
              CHANNELS 6 Xposition Yposition Zposition Zrotation Xrotation Yrotation
              JOINT Hand_L
              {
                OFFSET 22.2916 0 0
                CHANNELS 6 Xposition Yposition Zposition Zrotation Xrotation Yrotation
                End Site
                {
                  OFFSET 0 0 0
                }
              }
            }
          }
        }
        JOINT Shoulder_R
        {
          OFFSET 12.9945 -0.242716 -4.98039
          CHANNELS 6 Xposition Yposition Zposition Zrotation Xrotation Yrotation
          JOINT UpperArm_R
          {
            OFFSET -5.34813 0 0
            CHANNELS 6 Xposition Yposition Zposition Zrotation Xrotation Yrotation
            JOINT LowerArm_R
            {
              OFFSET -24.3289 0.000322201 0
              CHANNELS 6 Xposition Yposition Zposition Zrotation Xrotation Yrotation
              JOINT Hand_R
              {
                OFFSET -22.2915 -0.000108084 0
                CHANNELS 6 Xposition Yposition Zposition Zrotation Xrotation Yrotation
                End Site
                {
                  OFFSET 0 0 0
                }
              }
            }
          }
        }
      }
    }
    JOINT UpperLeg_L
    {
      OFFSET -2.19248 -6.46944 0
      CHANNELS 6 Xposition Yposition Zposition Zrotation Xrotation Yrotation
      JOINT LowerLeg_L
      {
        OFFSET 39.0811 0 -1.23785e-05
        CHANNELS 6 Xposition Yposition Zposition Zrotation Xrotation Yrotation
        JOINT Foot_L
        {
          OFFSET 40.9854 0 -1.26872e-05
          CHANNELS 6 Xposition Yposition Zposition Zrotation Xrotation Yrotation
          JOINT Toes_L
          {
            OFFSET 11.7543 0 0
            CHANNELS 6 Xposition Yposition Zposition Zrotation Xrotation Yrotation
            End Site
            {
              OFFSET 0 0 0
            }
          }
        }
      }
    }
    JOINT UpperLeg_R
    {
      OFFSET -2.19251 6.46944 0
      CHANNELS 6 Xposition Yposition Zposition Zrotation Xrotation Yrotation
      JOINT LowerLeg_R
      {
        OFFSET -39.0811 -0.00228153 -0.0401928
        CHANNELS 6 Xposition Yposition Zposition Zrotation Xrotation Yrotation
        JOINT Foot_R
        {
          OFFSET -40.9854 0 0
          CHANNELS 6 Xposition Yposition Zposition Zrotation Xrotation Yrotation
          JOINT Toes_R
          {
            OFFSET -11.7543 0 0
            CHANNELS 6 Xposition Yposition Zposition Zrotation Xrotation Yrotation
            End Site
            {
              OFFSET 0 0 0
            }
          }
        }
      }
    }
  }
}
MOTION
Frames:	6
Frame Time:	0.0333333
0 0 0 0 0 -0 -1.42024 85.3925 -256.963 87.5041 4.18439 -7.19057 15.7357 5.1072e-06 -5.51765e-07 69.5661 81.9629 -69.7908 8.98455 -0.406207 -4.3199e-07 7.31207 -5.59038 -0.0917614 16.3773 -1.3905e-06 -6.99897e-07 -5.71885 -1.85102 -1.99853 6.45672 -1.25837e-06 -1.02172e-07 -12.1745 -0.983772 2.13766 12.9942 -0.242716 4.98039 -90.9166 4.10517 -92.4058 5.34809 -7.22636e-06 -6.2814e-07 -61.6331 5.90013 -13.4242 24.3286 1.87007e-05 4.90208e-06 -5.18547 1.80927 -109.134 22.2916 -9.88446e-07 4.63217e-06 16.1807 5.48528 -5.92499 12.9945 -0.242716 -4.98039 87.3993 8.93754 -88.6966 -5.34813 -1.25947e-06 -3.79883e-06 -67.2389 20.0877 29.6879 -24.3289 0.000322201 -8.65921e-06 1.26298 0.409485 -72.0008 -22.2915 -0.000108084 -4.47941e-06 20.1063 5.64226 -14.3389 -2.19248 -6.46944 -1.22533e-07 -179.751 0.732029 -11.9534 39.0811 -6.73843e-06 -1.23785e-05 0.121444 -0.0537727 48.5834 40.9854 -6.48686e-06 -1.26872e-05 7.85666 3.92238 -82.5767 11.7543 -2.30145e-07 3.05095e-06 0.317703 -0.600619 -26.7992 -2.19251 6.46944 -1.45247e-06 177.602 8.90951 133.027 -39.0811 -0.00228153 -0.0401928 0.499955 0.215809 115.929 -40.9854 7.72618e-06 5.99936e-06 -9.94897 3.61452 -7.91964 -11.7543 -5.6619e-06 -5.58687e-06 0.384578 -0.462235 -20.996 
0 0 0 0 0 -0 -1.47973 90.7226 -247.783 85.4466 5.73195 -8.95309 15.7357 5.1072e-06 -5.51765e-07 57.3732 82.5024 -56.154 8.98455 -0.406207 -4.3199e-07 4.99033 -8.09853 2.79228 16.3773 -1.3905e-06 -6.99897e-07 -5.82427 -1.63185 -1.295 6.45672 -1.25837e-06 -1.02172e-07 -10.7083 1.72885 2.0611 12.9942 -0.242716 4.98039 -90.3226 1.51808 -92.9988 5.34809 -7.22636e-06 -6.2814e-07 -63.5261 9.14005 -14.8574 24.3286 1.87007e-05 4.90208e-06 -7.59971 3.28858 -113.264 22.2916 -9.88446e-07 4.63217e-06 14.8244 5.51109 -6.97767 12.9945 -0.242716 -4.98039 88.174 5.64854 -87.0491 -5.34813 -1.25947e-06 -3.79883e-06 -69.8726 20.8548 37.0969 -24.3289 0.000322201 -8.65921e-06 2.37601 0.577371 -76.3543 -22.2915 -0.000108084 -4.47941e-06 17.1285 5.63992 -14.0926 -2.19248 -6.46944 -1.22533e-07 -177.198 3.32433 -3.79299 39.0811 -6.73843e-06 -1.23785e-05 0.0628047 -0.0430394 33.3752 40.9854 -6.48686e-06 -1.26872e-05 4.14951 4.93013 -59.3437 11.7543 -2.30145e-07 3.05095e-06 0.591223 -1.65223 -43.1771 -2.19251 6.46944 -1.45247e-06 -177.599 7.62719 132.399 -39.0811 -0.00228153 -0.0401928 0.216764 0.0212881 101.31 -40.9854 7.72618e-06 5.99936e-06 -4.76375 3.87093 -21.6645 -11.7543 -5.6619e-06 -5.58687e-06 0.366766 -0.439165 -20.7818 
0 0 0 0 0 -0 -1.43312 95.4176 -238.897 85.014 4.95742 -9.7463 15.7357 5.1072e-06 -5.51765e-07 51.9973 82.8502 -50.124 8.98455 -0.406207 -4.3199e-07 3.68699 -8.85993 4.03413 16.3773 -1.3905e-06 -6.99897e-07 -6.25369 -1.21269 -0.353827 6.45672 -1.25837e-06 -1.02172e-07 -9.52453 3.52 2.51597 12.9942 -0.242716 4.98039 -89.7209 -1.26396 -92.5522 5.34809 -7.22636e-06 -6.2814e-07 -63.5738 13.2481 -17.0452 24.3286 1.87007e-05 4.90208e-06 -6.38552 3.09356 -115.746 22.2916 -9.88446e-07 4.63217e-06 12.9731 5.47613 -5.59393 12.9945 -0.242716 -4.98039 89.3408 1.96207 -86.4151 -5.34813 -1.25947e-06 -3.79883e-06 -73.4433 18.8926 43.6343 -24.3289 0.000322201 -8.65921e-06 3.1188 0.496396 -80.7794 -22.2915 -0.000108084 -4.47941e-06 15.8673 5.62432 -12.9113 -2.19248 -6.46944 -1.22534e-07 -174.28 -0.852928 3.32728 39.0811 -6.73843e-06 -1.23785e-05 -0.0673321 0.234662 18.9527 40.9854 -6.48686e-06 -1.26872e-05 -12.7341 4.53292 -30.9939 11.7543 -2.30145e-07 3.05095e-06 0.580057 -1.56222 -41.8147 -2.19251 6.46944 -1.45247e-06 -175.997 4.28513 134.04 -39.0811 -0.00228153 -0.0401928 0.0591325 -0.0207697 86.1821 -40.9854 7.72618e-06 5.99936e-06 0.376291 1.91761 -29.985 -11.7543 -5.6619e-06 -5.58687e-06 0.367542 -0.440174 -20.7911 
0 0 0 0 0 -0 -1.17295 98.7377 -230.175 84.7966 4.44974 -10.1105 15.7357 5.1072e-06 -5.51765e-07 48.6193 82.9989 -46.2276 8.98455 -0.406207 -4.3199e-07 2.97549 -9.34755 5.03008 16.3773 -1.3905e-06 -6.99897e-07 -6.11951 -0.669594 0.52938 6.45672 -1.25837e-06 -1.02172e-07 -8.67429 4.84037 3.03834 12.9942 -0.242716 4.98039 -89.0171 -4.5195 -92.7142 5.34809 -7.22636e-06 -6.2814e-07 -62.5648 16.0271 -19.3599 24.3286 1.87007e-05 4.90208e-06 -5.87003 3.10033 -117.744 22.2916 -9.88446e-07 4.63217e-06 12.2105 5.45616 -4.86069 12.9945 -0.242716 -4.98039 90.9363 -2.65061 -85.5511 -5.34813 -1.25947e-06 -3.79883e-06 -78.246 18.1742 47.5689 -24.3289 0.000322201 -8.65921e-06 4.04206 0.396224 -84.3993 -22.2915 -0.000108084 -4.47941e-06 16.0894 5.60029 -11.3627 -2.19248 -6.46944 -1.22533e-07 -170.897 -7.01524 8.62972 39.0811 -6.73843e-06 -1.23785e-05 -0.0271718 0.126576 15.8349 40.9854 -6.48686e-06 -1.26872e-05 -23.0751 -0.948328 -24.3778 11.7543 -2.30145e-07 3.05095e-06 0.15528 -0.261508 -21.1485 -2.19251 6.46944 -1.45247e-06 -175.707 2.04809 136.897 -39.0811 -0.00228153 -0.0401928 0.0210822 -0.0205929 71.0024 -40.9854 7.72618e-06 5.99936e-06 0.77266 3.44351 -32.6766 -11.7543 -5.6619e-06 -5.58687e-06 0.395786 -0.476855 -21.1314 
0 0 0 0 0 -0 -0.688114 101.072 -221.553 85.9832 4.72217 -10.0777 15.7357 5.1072e-06 -5.51765e-07 43.7745 82.8243 -41.4283 8.98455 -0.406207 -4.3199e-07 2.41959 -10.4644 4.9195 16.3773 -1.3905e-06 -6.99897e-07 -5.78157 -0.698732 1.56418 6.45672 -1.25837e-06 -1.02172e-07 -7.79818 6.31746 3.37559 12.9942 -0.242716 4.98039 -88.5271 -7.20805 -93.4176 5.34809 -7.22636e-06 -6.2814e-07 -60.5317 17.5615 -20.2562 24.3286 1.87007e-05 4.90208e-06 -7.23127 4.17243 -119.826 22.2916 -9.88446e-07 4.63217e-06 12.6459 5.45934 -4.97474 12.9945 -0.242716 -4.98039 92.3951 -6.2938 -84.121 -5.34813 -1.25947e-06 -3.79883e-06 -82.3935 19.2284 50.0008 -24.3289 0.000322201 -8.65921e-06 6.86882 0.237403 -88.0185 -22.2915 -0.000108084 -4.47941e-06 14.4639 5.58374 -10.4068 -2.19248 -6.46944 -1.22534e-07 -169.554 -12.5898 10.2297 39.0811 -6.73843e-06 -1.23785e-05 0.0899971 -0.168299 24.2501 40.9854 -6.48686e-06 -1.26872e-05 -14.3572 2.69344 -24.8533 11.7543 -2.30145e-07 3.05095e-06 0.159473 -0.269255 -21.2806 -2.19251 6.46944 -1.45247e-06 -176.788 2.55052 140.983 -39.0811 -0.00228153 -0.0401928 0.00190186 -0.015372 55.2929 -40.9854 7.72618e-06 5.99936e-06 -1.63275 6.13506 -32.8271 -11.7543 -5.6619e-06 -5.58687e-06 0.405318 -0.489341 -21.2468 
0 0 0 0 0 -0 -0.227393 102.194 -213.029 87.4252 4.68963 -9.00571 15.7357 5.1072e-06 -5.51764e-07 42.1678 82.462 -40.1197 8.98455 -0.406207 -4.3199e-07 2.60597 -11.2573 4.35917 16.3773 -1.3905e-06 -6.99897e-07 -5.26098 -1.18719 2.30159 6.45672 -1.25837e-06 -1.02172e-07 -7.50618 7.57819 4.00055 12.9942 -0.242716 4.98039 -88.1463 -9.35291 -93.7361 5.34809 -7.22636e-06 -6.2814e-07 -58.1537 19.0303 -20.7515 24.3286 1.87007e-05 4.90208e-06 -10.0064 6.08824 -121.007 22.2916 -9.88446e-07 4.63217e-06 14.7253 5.48945 -6.09974 12.9945 -0.242716 -4.98039 93.3345 -8.27143 -82.9533 -5.34813 -1.25947e-06 -3.79883e-06 -84.6659 20.4017 51.4121 -24.3289 0.000322201 -8.65921e-06 10.3947 -0.287085 -91.5589 -22.2915 -0.000108084 -4.47941e-06 10.694 5.57892 -10.1457 -2.19248 -6.46944 -1.22534e-07 -169.622 -12.8809 11.5489 39.0811 -6.73843e-06 -1.23785e-05 0.247937 -0.331755 34.7377 40.9854 -6.48686e-06 -1.26872e-05 -9.83753 0.202528 -23.4394 11.7543 -2.30145e-07 3.05095e-06 0.148544 -0.249123 -20.9363 -2.19251 6.46944 -1.45247e-06 -177.504 4.33363 146.372 -39.0811 -0.00228153 -0.0401928 -0.0197724 0.0152291 39.8667 -40.9854 7.72618e-06 5.99936e-06 -3.10337 8.79524 -33.6469 -11.7543 -5.6619e-06 -5.58687e-06 0.402852 -0.486108 -21.2169 
